<?xml version="1.0" encoding="utf-8"?>
<!-- Generator: Adobe Illustrator 27.9.0, SVG Export Plug-In . SVG Version: 6.00 Build 0)  -->
<svg version="1.1" id="Ebene_1" xmlns="http://www.w3.org/2000/svg" xmlns:xlink="http://www.w3.org/1999/xlink" x="0px" y="0px"
	 viewBox="0 0 623.6 312" style="enable-background:new 0 0 623.6 312;" xml:space="preserve">
<style type="text/css">
	.st0{fill:#C7D2DD;}
	.st1{fill:#00457B;}
	.st2{fill:#FFFFFF;}
	.st3{fill-rule:evenodd;clip-rule:evenodd;}
</style>
<g id="Fonds">
	<path class="st0" d="M312.4,311.9H0V0.1h312.1c17.5,49,26.9,102,26.9,156.9C339,211.3,329.4,263.3,312.4,311.9L312.4,311.9z"/>
	<path class="st1" d="M312.4,311.9h311.2V0.1H312.3c17.4,49,26.7,102,26.7,156.9C339,211.3,329.4,263.3,312.4,311.9L312.4,311.9z"/>
</g>
<g>
	<path class="st2" d="M590.4,56.9c2.5-2.8,2.3-5.2-0.5-5.2h-14c-2.8,0-4.3-0.3-8.8,4.3l-39,42.3L528,56.9c0-2.8-2.3-5.2-5.1-5.2
		h-9.5c-2.9,0-5.2,2.3-5.2,5.2V151c0,2.9,2.3,5.2,5.2,5.2h9.5c2.8,0,5.2-2.3,5.2-5.2v-24.6l17.3-18.7l26.8,43.3
		c1.7,2.9,4.2,5.2,7,5.2h14.3c2.8,0,3.7-2.3,2-5.2l-37-58.1L590.4,56.9L590.4,56.9z"/>
	<path class="st2" d="M363.4,151c0,2.8,2.3,5.2,5.1,5.2H379c2.8,0,5.1-2.3,5.1-5.2V56.9c0-2.8-2.3-5.2-5.2-5.2h-10.4
		c-2.8,0-5.2,2.3-5.2,5.2L363.4,151L363.4,151z"/>
	<path class="st2" d="M465.1,56.9c0-2.8,2.3-5.2,5.2-5.2h10.3c2.9,0,5.2,2.3,5.2,5.2V151c0,2.9-2.3,5.2-5.2,5.2h-10.2
		c-2.8,0-5.2-2.3-5.2-5.2v-38.8h-38.7V151c0,2.9-2.3,5.2-5.2,5.2H411c-2.8,0-5.2-2.3-5.2-5.2V56.9c0-2.8,2.3-5.2,5.1-5.2h10.3
		c2.8,0,5.2,2.3,5.2,5.2v37.8h38.7V56.9z"/>
</g>
<g id="Adler">
	<path class="st3" d="M195.8,135.7c-1.6,0-1.7,1-1.4,3.1c1,6.4,4.5,36.7,5.2,39.3c0,0,0.1,1.1-1.1,0.4c-0.1-0.1-7.4-37.3-6.8-39.6
		c0.4-1.5-4-0.4-3.6,0.6s3.4,61.7,17.9,61c1.2,0,2.6-2.6,1.5-6.3c-1.9-4.9-7-49.4-7.6-56c0-0.6,1.7-1.7,2.4,0
		c7,22.7,17.5,90.6,35,81.3c1.2,0,2.2-3.5-0.3-5.8c-5-3.3-15.8-52.1-22.4-75.3c-1-3.5,0.5-3.1,1-2.8c0,0,33.2,75,43,60.4
		c1-2.2,0-4.6-1.4-5.5c-5-3.3-24.7-45.3-33.1-66.3c-1.3-3.3-0.6-2.6-0.1-2.2c0,0,32.5,34,38.9,20.9c0-1.5-1.2-1.8-2.5-2.7
		c-5-3.3-18.3-12.8-33-30.2c-1.2-1.4-0.9-2-0.2-2.2s1.8,0,1.8,0c0.1,0.1,26.3,9.7,28.6,2.6c0.7-2.1-0.5-2.4-1-2.6
		c0,0-15.7-3.2-29.3-10.9c-0.3-0.2,0.7-3.2,0.7-3.2s22.8,2.5,19.1-6.9c0,0-0.7-0.6-1.8-0.5c-16.9,1.1-28.2-3-28.8-2.1
		c-2.6,4.1,7.8,4.6,7.8,4.6c-0.1,0.1,0.6,1.1-0.7,1.2s-5-1-5.1-0.6s-0.7,0.8-0.7,1.1c-1,7.7,18.4,13.8,19.4,14.2
		c0.8,0.3,0.9,1.6-0.3,1.3c-10.1-2.2-14.9-7.9-15.9-6.3c-0.3,0.5-2.1,6.4,1.9,10.9c0,0,15.7,15.9,15.2,16.6c0,0,0.1,1.1-1.1,0.4
		c-0.1-0.1-14.7-14-15.1-14.5c-0.7-1-0.9-0.6-0.9-0.6c-0.3,0.6-2.3,6.1-3.9,6.4c0,0-0.5,0.9,0,1.9c0.5,0.9,16.3,36.7,17,37.7
		c0,0,0.1,1.1-1.1,0.4c-2.1,0.2-16.2-33.9-16.6-34.3c0,0-0.7-1-1.1,0c-2.9,7.4-8.3,2.9-7.7,5.6c0,0.2,0.6,2.5,1.5,6.1
		c3.9,16,14.3,57.9,15.5,60.3c0,0,0.1,1.1-1.1,0.4c-0.1-0.1-13-43.5-17.1-59.6c-0.6-2.5-1.1-4.3-1.2-5.2c0,0-0.4-0.8-0.7,0
		C203.7,134,199.5,135.6,195.8,135.7L195.8,135.7z M243.8,107.7c0.1-0.5-0.5-1.1-1.5-1.4s-1.9-0.1-2,0.3c-0.1,0.5,0.5,1.1,1.5,1.4
		C242.7,108.3,243.6,108.2,243.8,107.7L243.8,107.7z M236,163.4c0.5-0.2,0.5-1.2,0-2.2s-1.3-1.6-1.8-1.4c-0.5,0.2-0.5,1.2,0,2.2
		C234.8,163.1,235.5,163.7,236,163.4L236,163.4z M200.9,182.9c-0.2-1.5-0.8-2.6-1.2-2.5c-0.5,0.1-0.6,1.3-0.4,2.8
		c0.2,1.5,0.8,2.6,1.2,2.5C200.9,185.6,201.1,184.4,200.9,182.9L200.9,182.9z M118.1,135.6c1.6,0,1.7,1,1.4,3.1
		c-1,6.4-4.5,36.7-5.2,39.3c0,0-0.1,1.1,1.1,0.4c0.1-0.1,7.4-37.3,6.8-39.6c-0.4-1.5,4-0.4,3.6,0.6s-3.4,61.7-17.9,61
		c-1.2,0-2.6-2.6-1.5-6.3c1.9-4.9,7-49.4,7.6-56c0-0.6-1.7-1.7-2.4,0c-7,22.7-17.5,90.6-35,81.3c-1.2,0-2.2-3.5,0.3-5.8
		c5-3.3,15.8-52.1,22.4-75.3c1-3.5-0.5-3.1-1-2.8c0,0-33.2,75-43,60.4c-1-2.2,0-4.6,1.4-5.5c5-3.3,24.7-45.3,33.1-66.3
		c1.3-3.3,0.6-2.6,0.1-2.2c0,0-32.5,34-38.9,20.9c0-1.5,1.2-1.8,2.5-2.7c5-3.3,18.3-12.8,33-30.2c1.2-1.4,0.9-2,0.2-2.2
		c-0.7-0.2-1.8,0-1.8,0c-0.1,0.1-26.3,9.7-28.6,2.6c-0.7-2.1,0.5-2.4,1-2.6c0,0,15.7-3.2,29.3-10.9c0.3-0.2-0.7-3.2-0.7-3.2
		s-22.8,2.5-19.1-7c0,0,0.7-0.6,1.8-0.5c16.9,1.1,28.2-3,28.8-2.1c2.6,4.1-7.8,4.6-7.8,4.6c0.1,0.1-0.6,1.1,0.7,1.2
		c1.4,0.1,5-1,5.1-0.6s0.7,0.8,0.7,1.1c1,7.7-18.4,13.8-19.4,14.2c-0.8,0.3-0.9,1.6,0.3,1.3c10.1-2.2,14.9-7.9,15.9-6.3
		c0.3,0.5,2.1,6.4-1.9,10.9c0,0-15.7,15.9-15.2,16.6c0,0-0.1,1.1,1.1,0.4c0.1-0.1,14.7-14,15.1-14.5c0.7-1,0.9-0.6,0.9-0.6
		c0.3,0.6,2.3,6.1,3.9,6.4c0,0,0.5,0.9,0,1.9c-0.5,0.9-16.3,36.7-17,37.7c0,0-0.1,1.1,1.1,0.4c2.1,0.2,16.2-33.9,16.6-34.3
		c0,0,0.7-1,1.1,0c2.9,7.4,8.3,2.9,7.7,5.6c0,0.2-0.6,2.5-1.5,6.1c-3.9,16-14.3,57.9-15.5,60.3c0,0-0.1,1.1,1.1,0.4
		c0.1-0.1,13-43.5,17.1-59.6c0.6-2.5,1.1-4.3,1.2-5.2c0,0,0.4-0.8,0.7,0C110.3,133.9,114.4,135.6,118.1,135.6L118.1,135.6z
		 M70.2,107.6c-0.1-0.5,0.5-1.1,1.5-1.4s1.9-0.1,2,0.3c0.1,0.5-0.5,1.1-1.5,1.4C71.2,108.3,70.3,108.1,70.2,107.6L70.2,107.6z
		 M77.9,163.4c-0.5-0.2-0.5-1.2,0-2.2s1.3-1.6,1.8-1.4c0.5,0.2,0.5,1.2,0,2.2C79.2,163,78.4,163.6,77.9,163.4L77.9,163.4z
		 M113.1,182.9c0.2-1.5,0.8-2.6,1.2-2.5c0.5,0.1,0.6,1.3,0.4,2.8s-0.8,2.6-1.2,2.5C113,185.5,112.8,184.3,113.1,182.9L113.1,182.9z
		 M166.7,118.4c0,0-4-3.6,2.5-6.4c0,0-0.7-5.9,2.6-9.5c0.6-0.6,0.7-15.6-1.2-20.3c-2.3-5.7-10.8-6.8-12.7-6.8
		c-10.7,0.4-10.9,1.7-10.9,1.7c-0.6,0.2-0.2,1-0.6,1c-9.3,0.6-5.5,14.2,0.6,14.2c0.1,0,0,0.6,0,0.6c-11.6,7.1-9.6-1.8-9.6-1.8
		c0-1.7-2.7-1.9-3.1,0s0.3,6.4,3.9,7c5.3,0.8,9.4-3.4,9.5-3.5c0,0,1.5,3.5,6.4,2.9c0.9-0.1,3,3.7,2,4.4c-11,7.8-9,10.2-9,10.2
		c1.7-0.9,0.6,4.5,0.6,4.5s-0.4,1.9-1.3,1.9c-5-0.1-14,3.2-14.6,3.2c-5.4-0.3-10.1-5.4-15.3-5.8c-1.9-0.2-4.5-0.1-6.3-2.6
		c-5-6.8-2.1-16.5-1.2-16.5c8.7,0.3,9.5-11.6,3.8-14.5c0,0-1.6-0.6-3.3-0.7c-23.6-0.9-12.8-8.5-14.3-10.7c-2.6-3.8-12.9,10.4,6,11.9
		c2.5,0.2,0,1.9,0,1.9s-3.2,1.9-1.3,5.5c0.1,0.1-1.3,0.8-1.3,0.8c-3,3.1,0.4,6,0.4,6c-6.8,4.3-0.3,9.6-1.2,10
		c-2.3,1.2-3.9,9.7,3.5,9.4c0.9,0,0.4,0.7,0.5,0.8c0,0-3.6,12.2,9.6,6.8c0.1-0.1-2.3,13.7,11.4,5.8c0.2-0.1-0.7,7.6,7,7.5
		c2.1,0-2.3,3.3-2.3,3.3c-1.9,2.9,0,7.6,0,7.6c2.6,3.7-0.5,19.3,0.6,19.7c5.2,2.1,9.1-6.2,10.1-3.2c0.9,2.8,4.4,2.8,3.2,3.5
		c-3.4,1.8-7.1,8.4-8.9,11.6c-1.6,2.9-5.7,12.4-8,12.4l3.1,4.2c0.7,2.8-7.3,15.2-9.1,15.9c-6.2,2.5-8.8-1.3-11.2-1.6
		c-7.5-0.8-4.9,9-4.5,7.7c1.2-4,4.7-0.8,9.5-1.7c1.3-0.3,0,1.1,0,1.1c-4.9,3.4-10.6,3.3-10.6,3.3c-4.3,2.3,0.6,9.9,0.6,9.9
		c-0.2-4.6,4.8-1.8,5.5-4.6c0,0,4.4-6,8.2-5.8c0.1,0.4,1.2,0.1,0.8,1c0,0-5.5,5.3-5.7,5.3c0,0-2.7,3.8,1.9,8.2
		c0.9,0.9,1.6,1.4,1.9,1.2c-0.6-1.1-0.1-2.3-0.1-2.3c2.1,0.1,3.7-3.2,4.6-8.4c0.8-4.6,7.7-11.3,11.4-9.7c3.4,1.5,4.8,0,4.8,0
		l1.1,1.3c-0.1-0.5,1.3-7.3-3.8-7.4c-2.1-0.1-0.9,3.7-7.7,2.9c-1.2-0.1,6.3-9.3,8.8-14.5c0,0,0.2-1.7,4,1.3c2.3,2.5,3.8,3.1,3.8,3.1
		c0-1.6,0.7-9.6,4.6-14.3c2.8-3.5,6.4-11.3,6.4-11.8c0.1-0.6,1.4-1.9,1.7,0c3.3,28.2-6.5,26.8-6.6,26.8c-1.6,0-3.5-2-3.6-1.9
		c-0.6,1.1-0.1,3.3,1.4,5.2c-3.4,8.4,3.5,8.1,3.5,8.1c-3.8-7.3,6.1-10.2,6-9.6c-3.4,27-15.9,22.6-15.3,15.9c0-0.3-4.6,0.6-1.9,7
		c0,0.1-9.6,6.6-0.5,11.3c2.9,1.5,3.4-1.5,0.9-2.9c-1.3-0.7-1.1-5.2,4-3.3c0.2,0.1-1.4,6.5,7.7,3.7c1-0.3-7.1-0.4-1.9-5.7
		c2-2.1,7.1-10.2,7.1-10.2s2.5,16.6-8.3,19.7c0.8,4.2,7.6,1.3,7.6,1.3s-0.3,9.5,2.9,10.3c3.2-0.8,2.9-10.2,2.9-10.2s6.8,2.9,7.6-1.3
		c-10.8-3.1-8.3-19.7-8.3-19.7s5,8.1,7.1,10.2c5.1,5.3-2.9,5.4-1.9,5.7c9.1,2.8,7.5-3.6,7.7-3.7c5.1-1.9,5.3,2.6,4,3.3
		c-2.5,1.5-2,4.4,0.9,2.9c9.1-4.8-0.5-11.3-0.5-11.3c2.7-6.4-2-7.4-1.9-7c0.6,6.7-12,11.1-15.3-15.9c-0.1-0.7,9.8,2.3,6,9.6
		c0,0,6.8,0.3,3.5-8.1c1.5-1.9,1.9-4.1,1.4-5.2c-0.1-0.1-1.9,1.9-3.6,1.9c-0.1,0-9.9,1.5-6.6-26.8c0.2-1.9,1.6-0.5,1.7,0
		c0.1,0.6,3.7,8.3,6.4,11.8c3.9,4.7,4.6,12.7,4.6,14.3c0,0,1.5-0.6,3.8-3.1c3.8-3,4-1.3,4-1.3c2.5,5.2,10.1,14.3,8.8,14.5
		c-6.8,0.8-5.6-2.9-7.7-2.9c-5.1,0.1-3.7,6.9-3.8,7.4l1.1-1.3c0,0,1.4,1.5,4.8,0c3.7-1.6,10.6,5,11.4,9.7c0.9,5.2,2.5,8.5,4.6,8.4
		c0,0,0.5,1.2-0.1,2.3c0.2,0.2,0.9-0.2,1.9-1.2c4.6-4.4,1.9-8.2,1.9-8.2c-0.2,0-5.7-5.3-5.7-5.3c-0.5-1,0.6-0.7,0.8-1
		c3.8-0.2,8.2,5.8,8.2,5.8c0.8,2.8,5.7,0,5.5,4.6c0,0,4.8-7.6,0.6-9.9c0,0-5.7,0.1-10.6-3.3c0,0-1.3-1.4,0-1.1
		c4.8,1,8.2-2.3,9.5,1.7c0.4,1.3,3-8.5-4.5-7.7c-2.4,0.2-5,4.1-11.2,1.6c-1.8-0.7-9.8-13.1-9.1-15.9l3.1-4.2
		c-2.3-0.1-6.4-9.5-8-12.4c-1.8-3.2-5.5-9.8-8.9-11.6c-1.2-0.6,2.2-0.7,3.2-3.5c1-3,4.9,5.3,10.1,3.2c1-0.4-2.1-16,0.6-19.7
		c0,0,1.9-4.7,0-7.6c0,0-4.4-3.3-2.3-3.3c7.7,0.1,6.8-7.6,7-7.5c13.7,7.9,11.2-5.9,11.4-5.8c13.1,5.4,9.6-6.8,9.6-6.8
		c0.1-0.1-0.4-0.8,0.5-0.8c7.4,0.3,5.7-8.3,3.5-9.4c-0.8-0.4,5.7-5.7-1.2-10c0,0,3.4-2.8,0.4-6c0,0-1.3-0.7-1.3-0.8
		c1.8-3.7-1.3-5.5-1.3-5.5s-2.5-1.7,0-1.9c19-1.5,8.7-15.7,6-11.9c-1.5,2.2,9.3,9.8-14.2,10.6c-1.6,0.1-3.3,0.7-3.3,0.7
		c-5.7,2.9-4.9,14.7,3.8,14.5c0.9,0,3.8,9.7-1.2,16.5c-1.8,2.5-4.5,2.4-6.3,2.6c-5.2,0.5-9.9,5.6-15.3,5.8
		C181.6,121.7,171.8,118.3,166.7,118.4L166.7,118.4z M148.9,80.9c0.6,0.2,5.2,8.8,10.2,9.4c1.3,0.2,1.3,5.8,1.3,5.8
		c-2.6,1.2-4.6-0.7-5.1-0.6v-0.6c0,0,3.6,0.3,3.2-1c-2.2-7.1-13.4-5.3-13.4-5.3c-0.8-1-2.1-4.3,1.3-5.2
		C146.4,83.4,144.7,79.4,148.9,80.9L148.9,80.9z M153.1,92.6c-3.8-5.2-7.9-0.2-6.1-0.3C148.7,92.2,153.2,92.8,153.1,92.6L153.1,92.6
		z M103.8,86.6c0-0.7,0.6-1.3,1.4-1.3s1.4,0.6,1.4,1.3c0,0.7-0.6,1.3-1.4,1.3C104.5,88,103.8,87.4,103.8,86.6L103.8,86.6z
		 M100.8,92.9c0.1-0.7,1.2-1.1,2.3-0.9c1.1,0.2,2,1,1.8,1.7c-0.1,0.7-1.2,1.1-2.3,0.9S100.7,93.6,100.8,92.9L100.8,92.9z
		 M99.3,101.5c0-0.9,0.7-1.7,1.7-1.7c0.9,0,1.7,0.7,1.7,1.7s-0.7,1.7-1.7,1.7S99.3,102.4,99.3,101.5L99.3,101.5z M99,112.1
		c-0.5-0.8,0.1-2,1.3-2.8c1.2-0.8,2.6-0.8,3.1,0s-0.1,2-1.3,2.8C100.8,112.8,99.4,112.9,99,112.1L99,112.1z M104.7,122.5
		c-0.7-0.6-0.5-1.9,0.4-3s2.2-1.6,2.9-1c0.7,0.6,0.5,1.9-0.4,3S105.4,123.1,104.7,122.5L104.7,122.5z M115.1,128.7
		c-0.9-0.6-1-2-0.2-3.1c0.7-1.1,2.1-1.4,3-0.8s1,2,0.2,3.1C117.3,129,115.9,129.3,115.1,128.7L115.1,128.7z M127.4,133.8
		c-0.8-0.2-1.2-1.3-1-2.4c0.3-1.2,1.1-2,1.9-1.8s1.2,1.3,1,2.4C129.1,133.2,128.2,134,127.4,133.8L127.4,133.8z M152.7,83
		c0-0.6,0.7-1.2,1.6-1.2c0.9,0,1.6,0.5,1.6,1.2s-0.7,1.2-1.6,1.2S152.7,83.6,152.7,83L152.7,83z M157,73.6c-3.3,0-6.6,0.2-8,0.8
		c-0.2,0.1-1.6-2.3-2-5.3c0,0-1-4.5-4.4-6.1c0,0-1.8-1.7,0.7-2.4c2.5-0.8,3.5,2.2,7.6,3.6c0,0-2.8,4.6-0.1,6.2
		c2,1.3,3.9-0.4,3.9-0.7c0.6-4.6-2.2-6-2.5-6.1v-1.2c0,0,1.9-0.4,1.9-1.5c0,0,0.1-3.8,2.9-3.9c2.8,0,2.9,3.8,2.9,3.8
		c0.1,1.1,1.9,1.5,1.9,1.5v1.2c-0.3,0-3.1,1.4-2.5,6.1c0,0.2,1.8,1.9,3.9,0.6c2.7-1.7-0.1-6.2-0.1-6.2c4.1-1.4,5.1-4.4,7.6-3.6
		c2.5,0.8,0.7,2.4,0.7,2.4c-3.4,1.8-4.4,6.3-4.4,6.3c-0.4,3-1.8,5.4-2,5.3C163.6,73.8,160.2,73.6,157,73.6L157,73.6z M142.7,172.9
		c0.4-0.7,1.5-0.9,2.5-0.4s1.5,1.5,1.1,2.3c-0.4,0.7-1.5,0.9-2.5,0.4S142.3,173.7,142.7,172.9L142.7,172.9z M140,177.3
		c0.4-0.7,1.5-0.9,2.5-0.4s1.5,1.5,1.1,2.3c-0.4,0.7-1.5,0.9-2.5,0.4S139.6,178,140,177.3L140,177.3z M137.3,182
		c0.4-0.7,1.5-0.9,2.5-0.4s1.5,1.5,1.1,2.3c-0.4,0.7-1.5,0.9-2.5,0.4C137.4,183.8,136.9,182.7,137.3,182L137.3,182z M134.5,186.6
		c0.4-0.7,1.5-0.9,2.5-0.4s1.5,1.5,1.1,2.3c-0.4,0.7-1.5,0.9-2.5,0.4S134.1,187.4,134.5,186.6L134.5,186.6z M207.3,86.7
		c0-0.7,0.6-1.3,1.4-1.3c0.8,0,1.4,0.6,1.4,1.3s-0.6,1.3-1.4,1.3S207.3,87.4,207.3,86.7L207.3,86.7z M213.1,93
		c-0.1-0.7-1.2-1.1-2.3-0.9s-2,1-1.8,1.7c0.1,0.7,1.2,1.1,2.3,0.9C212.5,94.4,213.3,93.7,213.1,93L213.1,93z M211.3,101.6
		c0-0.9,0.7-1.7,1.7-1.7c0.9,0,1.7,0.7,1.7,1.7c0,0.9-0.7,1.7-1.7,1.7C212.1,103.2,211.3,102.5,211.3,101.6L211.3,101.6z M215,112.2
		c0.5-0.8-0.1-2-1.3-2.8s-2.6-0.8-3.1,0s0.1,2,1.3,2.8C213.1,112.9,214.5,112.9,215,112.2L215,112.2z M209.3,122.6
		c0.7-0.6,0.5-1.9-0.4-3s-2.2-1.6-2.9-1s-0.5,1.9,0.4,3S208.6,123.1,209.3,122.6L209.3,122.6z M198.9,128.8c0.9-0.6,1-2,0.2-3.1
		s-2.1-1.4-3-0.8s-1,2-0.2,3.1C196.7,129,198,129.4,198.9,128.8L198.9,128.8z M186.6,133.8c0.8-0.2,1.2-1.3,1-2.4
		c-0.3-1.2-1.1-2-1.9-1.8c-0.8,0.2-1.2,1.3-1,2.4C184.9,133.2,185.7,134,186.6,133.8L186.6,133.8z M171.3,173
		c-0.4-0.7-1.5-0.9-2.5-0.4s-1.5,1.5-1.1,2.3c0.4,0.7,1.5,0.9,2.5,0.4S171.7,173.7,171.3,173L171.3,173z M173.9,177.3
		c-0.4-0.7-1.5-0.9-2.5-0.4s-1.5,1.5-1.1,2.3c0.4,0.7,1.5,0.9,2.5,0.4C173.8,179.1,174.3,178.1,173.9,177.3L173.9,177.3z M176.6,182
		c-0.4-0.7-1.5-0.9-2.5-0.4s-1.5,1.5-1.1,2.3c0.4,0.7,1.5,0.9,2.5,0.4S177,182.8,176.6,182L176.6,182z M179.5,186.7
		c-0.4-0.7-1.5-0.9-2.5-0.4s-1.5,1.5-1.1,2.3c0.4,0.7,1.5,0.9,2.5,0.4C179.3,188.4,179.8,187.4,179.5,186.7L179.5,186.7z M157,164.9
		l-1.1-0.1v-3.2c-4.1-0.4-3.1-4.4-3.1-4.4c-0.1-0.1-4.7-3.4,0.2-8.8c0.1-0.1-3.8-2.3-1.6-6.6c0,0,0.8-2.2-0.6-2.4
		c-2.3-0.3-3.9-3.5-4.4-3.9c-2.6-1.7-7,3.4-11.5-1.7c-2.2-2.5,0.2-2.8,0.2-2.8s8.8-0.1,14.2-3.5c0,0,5.7-0.9,3.4,1
		c-1.8,1.5-2.5,5.2,1.2,5.8c1.3,0.2,2.3-0.9,2-5.2c-0.1-0.7-1.1,0.3-1.2-3.8c0-1.4,1.2-1.8,2.2-1.7c1-0.1,2.2,0.2,2.2,1.7
		c-0.1,4.1-1.1,3.1-1.2,3.8c-0.3,4.3,0.7,5.4,2,5.2c3.7-0.6,2.9-4.4,1.2-5.8c-2.2-1.9,3.4-1,3.4-1c5.4,3.4,14.2,3.5,14.2,3.5
		s2.4,0.2,0.2,2.8c-4.4,5.1-8.8,0-11.5,1.7c-0.6,0.4-2.1,3.5-4.4,3.9c-1.4,0.2-0.6,2.3-0.6,2.4c2.2,4.3-1.7,6.5-1.6,6.6
		c5,5.5,0.3,8.7,0.2,8.8c0,0,1.1,4-3.1,4.4v3.2L157,164.9L157,164.9z M155.5,142.4c0.1,0.1,0,4,0,4C152,146.7,154,140.8,155.5,142.4
		L155.5,142.4z M155.5,151.5c0.1,0.1,0,4,0,4C152,155.8,154,149.9,155.5,151.5L155.5,151.5z M158.4,142.3c-0.1,0.1,0,4,0,4
		C161.9,146.6,159.9,140.8,158.4,142.3L158.4,142.3z M158.4,151.5c-0.1,0.1,0,4,0,4C161.9,155.7,160,149.9,158.4,151.5L158.4,151.5z
		 M157,172.5c-10.2-7.9-12.2-2.8-19.6-12.3c-5.3-7.7-3.6-22.7-5.5-30.2c-0.6-2.3-1-2-1.2-2.1v-3.8c0,0,12.3-3.9,26.4-3.9
		c14.1,0,26.4,3.9,26.4,3.9v3.8c-0.2,0-0.6-0.3-1.2,2c-2,7.5-0.3,22.5-5.5,30.2C169.1,169.7,167.2,164.6,157,172.5L157,172.5z
		 M187.2,152.1c0.1,0.7-0.6,34.7,3.9,31c0.7-0.6-0.5-6.3-0.5-6.3C189.3,169.4,187.2,152.1,187.2,152.1L187.2,152.1z M204,154.7
		c0.1,0.7,7.6,52.8,12.2,51.1c1.9-0.7-0.3-5.3-0.3-5.3C213.6,194.5,204,154.7,204,154.7L204,154.7z M220.8,150.1
		c0.1,0.7,13.6,51.4,19.4,46c0.7-0.7-1.4-3.9-1.4-3.9C235.5,186.6,220.8,150.1,220.8,150.1L220.8,150.1z M229.9,129.7
		c0.1,0.7,20.5,33.4,25.2,28.2c1.1-1.3-1.5-2.6-1.5-2.6C247.8,152.8,229.9,129.7,229.9,129.7L229.9,129.7z M232.6,110.8
		c0.1,0.7,22.1,17.5,24.1,13.1c0.7-1.5-1.7-2.4-1.7-2.4C248.6,120.4,232.6,110.8,232.6,110.8L232.6,110.8z M230.8,95.6
		c0.4,0.6,21.1,7.1,21.1,2.3c0-1.7-2.6-1.5-2.6-1.5C245.2,97.2,230.8,95.6,230.8,95.6L230.8,95.6z M126.7,152
		c-0.1,0.7,0.6,34.7-3.9,31c-0.7-0.6,0.5-6.3,0.5-6.3C124.6,169.3,126.7,152,126.7,152L126.7,152z M110,154.6
		c-0.1,0.7-7.6,52.8-12.2,51.1c-1.9-0.7,0.3-5.3,0.3-5.3C100.3,194.4,110,154.6,110,154.6L110,154.6z M93.1,150.1
		c-0.1,0.7-13.6,51.4-19.4,46c-0.7-0.7,1.4-3.9,1.4-3.9C78.5,186.6,93.1,150.1,93.1,150.1L93.1,150.1z M84.1,129.6
		c-0.1,0.7-20.5,33.4-25.2,28.2c-1.1-1.3,1.5-2.6,1.5-2.6C66.2,152.7,84.1,129.6,84.1,129.6L84.1,129.6z M81.3,110.7
		c-0.1,0.7-22.1,17.5-24.1,13.1c-0.7-1.5,1.7-2.4,1.7-2.4C65.3,120.4,81.3,110.7,81.3,110.7L81.3,110.7z M83.1,95.6
		c-0.4,0.6-21.1,7.1-21.1,2.3c0-1.7,2.6-1.5,2.6-1.5C68.7,97.1,83.1,95.6,83.1,95.6L83.1,95.6z"/>
</g>
</svg>
